# xmcd
#
# Track frame offsets:
#	150
#	43408
#	60496
#	83049
#	109587
#	139908
#	159618
#	182798
#	207714
#	231272
#
# Disc length: 3333 seconds
#
# Revision: 1
# Processed by: cddbd v1.5.2PL0 Copyright (c) Steve Scherf et al.
# Submitted via: audiograbber 1.83.01
#
DISCID=900d030a
DTITLE=Mark Knopfler and Friends - Live in Beaulieu 2002
DYEAR=2002
DGENRE=Rock
TTITLE0=Calling Elvis
TTITLE1=Run me down
TTITLE2=Your own sweet way
TTITLE3=Railroad worksong
TTITLE4=Are we in trouble now
TTITLE5=Quality shoe
TTITLE6=Hobo's lullaby
TTITLE7=Can't be satisfied
TTITLE8=Feel like going home
TTITLE9=Setting me up
EXTD=
EXTT0=
EXTT1=
EXTT2=
EXTT3=
EXTT4=
EXTT5=
EXTT6=
EXTT7=
EXTT8=
EXTT9=
PLAYORDER=
